PathFileType	4	(X/Y/Z)	C:\Users\wzy\Desktop\s001_20220513_walk_1_markers.trc
DataRate	CameraRate	NumFrames	NumMarkers	Units	OrigDataRate	OrigDataStartFrame	OrigNumFrames
250.000000	250.000000	4	99	mm	250.000000	269	1078
Frame#	Time	QTMMod_head_top			QTMMod_head_l_ant			QTMMod_head_r_ant			QTMMod_head_r_post			QTMMod_head_l_post			QTMMod_trunk_l_acro			QTMMod_trunk_r_acro			QTMMod_trunk_manu			QTMMod_trunk_xyph			QTMMod_trunk_abdl			QTMMod_trunk_c7			QTMMod_trunk_t8			QTMMod_trunk_t12			QTMMod_l_sho_ant			QTMMod_l_sho_post			QTMMod_l_bicep			QTMMod_l_tricep			QTMMod_l_elb_lat			QTMMod_l_elb_med			QTMMod_l_farm_ant			QTMMod_l_farm_post			QTMMod_l_wri_lat			QTMMod_l_wri_med			QTMMod_l_hand			QTMMod_l_thmb			QTMMod_r_sho_ant			QTMMod_r_sho_post			QTMMod_r_bicep			QTMMod_r_tricep			QTMMod_r_elb_lat			QTMMod_r_elb_med			QTMMod_r_farm_ant			QTMMod_r_farm_post			QTMMod_r_wri_lat			QTMMod_r_wri_med			QTMMod_r_hand			QTMMod_r_thmb			QTMMod_pelvis_l_asis			QTMMod_pelvis_r_asis			QTMMod_pelvis_r			QTMMod_pelvis_r_ilcr			QTMMod_pelvis_r_psis			QTMMod_pelvis_sac			QTMMod_pelvis_l_psis			QTMMod_pelvis_l_ilcr			QTMMod_pelvis_l			QTMMod_l_hip_grtr			QTMMod_l_thigh_antprox			QTMMod_l_thigh_postprox			QTMMod_l_thigh_postdist			QTMMod_l_thigh_antdist			QTMMod_l_thigh_ant			QTMMod_l_thigh_med			QTMMod_l_thigh_pos			QTMMod_l_knee_lat			QTMMod_l_knee_med			QTMMod_l_shank_antprox			QTMMod_l_shank_postprox			QTMMod_l_shank_postdist			QTMMod_l_shank_antdist			QTMMod_l_shank_med			QTMMod_l_ank_lat			QTMMod_l_ank_med			QTMMod_l_foot_heel			QTMMod_l_foot_lat			QTMMod_l_foot_m5			QTMMod_l_foot_m2			QTMMod_l_foot_toe			QTMMod_l_foot_m1			QTMMod_l_foot_med			QTMMod_l_foot_navi			QTMMod_r_hip_grtr			QTMMod_r_thigh_antprox			QTMMod_r_thigh_postprox			QTMMod_r_thigh_postdist			QTMMod_r_thigh_antdist			QTMMod_r_thigh_ant			QTMMod_r_thigh_med			QTMMod_r_thigh_pos			QTMMod_r_knee_lat			QTMMod_r_knee_med			QTMMod_r_shank_antprox			QTMMod_r_shank_postprox			QTMMod_r_shank_postdist			QTMMod_r_shank_antdist			QTMMod_r_shank_med			QTMMod_r_ank_lat			QTMMod_r_ank_med			QTMMod_r_foot_heel			QTMMod_r_foot_lat			QTMMod_r_foot_m5			QTMMod_r_foot_m2			QTMMod_r_foot_toe			QTMMod_r_foot_m1			QTMMod_r_foot_med			QTMMod_r_foot_navi			QTMMod_head_l			QTMMod_head_r			QTMMod_head_front			
		X1	Y1	Z1	X2	Y2	Z2	X3	Y3	Z3	X4	Y4	Z4	X5	Y5	Z5	X6	Y6	Z6	X7	Y7	Z7	X8	Y8	Z8	X9	Y9	Z9	X10	Y10	Z10	X11	Y11	Z11	X12	Y12	Z12	X13	Y13	Z13	X14	Y14	Z14	X15	Y15	Z15	X16	Y16	Z16	X17	Y17	Z17	X18	Y18	Z18	X19	Y19	Z19	X20	Y20	Z20	X21	Y21	Z21	X22	Y22	Z22	X23	Y23	Z23	X24	Y24	Z24	X25	Y25	Z25	X26	Y26	Z26	X27	Y27	Z27	X28	Y28	Z28	X29	Y29	Z29	X30	Y30	Z30	X31	Y31	Z31	X32	Y32	Z32	X33	Y33	Z33	X34	Y34	Z34	X35	Y35	Z35	X36	Y36	Z36	X37	Y37	Z37	X38	Y38	Z38	X39	Y39	Z39	X40	Y40	Z40	X41	Y41	Z41	X42	Y42	Z42	X43	Y43	Z43	X44	Y44	Z44	X45	Y45	Z45	X46	Y46	Z46	X47	Y47	Z47	X48	Y48	Z48	X49	Y49	Z49	X50	Y50	Z50	X51	Y51	Z51	X52	Y52	Z52	X53	Y53	Z53	X54	Y54	Z54	X55	Y55	Z55	X56	Y56	Z56	X57	Y57	Z57	X58	Y58	Z58	X59	Y59	Z59	X60	Y60	Z60	X61	Y61	Z61	X62	Y62	Z62	X63	Y63	Z63	X64	Y64	Z64	X65	Y65	Z65	X66	Y66	Z66	X67	Y67	Z67	X68	Y68	Z68	X69	Y69	Z69	X70	Y70	Z70	X71	Y71	Z71	X72	Y72	Z72	X73	Y73	Z73	X74	Y74	Z74	X75	Y75	Z75	X76	Y76	Z76	X77	Y77	Z77	X78	Y78	Z78	X79	Y79	Z79	X80	Y80	Z80	X81	Y81	Z81	X82	Y82	Z82	X83	Y83	Z83	X84	Y84	Z84	X85	Y85	Z85	X86	Y86	Z86	X87	Y87	Z87	X88	Y88	Z88	X89	Y89	Z89	X90	Y90	Z90	X91	Y91	Z91	X92	Y92	Z92	X93	Y93	Z93	X94	Y94	Z94	X95	Y95	Z95	X96	Y96	Z96	X97	Y97	Z97	X98	Y98	Z98	X99	Y99	Z99	

270	1.076	-568.6381225585939	1666.208618164062	-202.1678771972656	-509.7388916015626	1568.671997070312	-287.3797302246093	-503.561248779297	1579.482299804688	-121.8025207519531	-601.5230712890626	1559.968627929688	-122.2041244506836	-624.3478393554689	1544.265014648438	-273.7559204101562	-558.7631225585939	1396.123779296875	-360.7012329101562	-558.8760986328126	1364.9384765625	-44.70597839355465	-518.3355712890626	1334.812255859375	-206.2117919921875	-472.5708618164063	1117.265380859375	-213.355712890625	-441.5670471191407	987.2467041015625	-218.929443359375	-628.2634277343751	1422.960083007812	-199.1848907470703	-706.3009643554689	1220.484375	-218.0891876220703	-698.7506713867189	1123.375244140625	-213.1420898437499	-526.6842651367189	1333.643920898438	-350.1986389160156	-633.9998779296876	1372.809326171875	-369.4888305664062	-540.5429687500001	1186.376831054688	-402.4494934082031	-652.1021728515626	1200.9228515625	-408.5822753906249	-580.5494995117189	1075.5546875	-462.5943603515624	-631.7261962890626	1057.433471679688	-379.4290466308593	-588.9047851562501	957.7740478515625	-402.6746520996093	-593.1022338867189	975.7664794921875	-484.1594848632812	-556.9237060546875	828.9031372070312	-444.5411376953124	-592.1318359375	841.8279418945312	-502.9834899902343	-567.6835327148438	781.5543823242188	-502.0773010253906	-556.2356567382812	778.6838989257812	-445.8131103515624	-516.3575439453126	1308.057495117188	-66.29930114746091	-640.1160888671876	1335.181518554688	-45.48015594482418	-532.9111328125001	1160.877319335938	-10.98308277130124	-637.0005493164064	1163.880493164062	2.836951971054116	-562.4146728515626	1043.218505859375	66.73820495605472	-609.3502807617189	1023.534545898438	-21.56214332580562	-556.1372680664064	952.739013671875	5.605771541595493	-585.8345947265626	972.6285400390625	83.95289611816411	-527.0079956054688	805.3463134765625	52.29599380493168	-581.45166015625	804.7577514648438	97.97005462646489	-550.2024536132812	747.9067993164062	106.0521087646485	-517.0252685546875	750.4751586914062	64.43495178222659	-499.1388244628907	972.6931762695312	-331.1076354980468	-494.5066528320313	985.7727661132812	-97.82338714599607	-588.2908935546876	1012.928039550781	-38.77021026611325	-590.3939819335939	1030.531616210938	-40.80272293090817	-699.8292846679689	1018.541931152344	-150.916030883789	-705.4499511718751	1013.500854492188	-204.987075805664	-703.5553588867189	1013.784240722656	-254.5241394042968	-587.8611450195314	1024.2216796875	-377.5217895507812	-576.3483276367189	971.8731689453125	-382.9668579101562	-591.4408569335938	927.916259765625	-396.7161560058593	-478.4201660156251	639.5396118164062	-388.4512634277343	-544.6699829101562	622.0335693359375	-373.3440856933593	-517.0567016601562	529.1858520507812	-360.0570068359374	-448.2282409667969	551.1507568359375	-370.0339965820312	-403.8205261230469	538.4761352539062	-310.3774719238281	-442.3593444824219	607.421875	-236.3218994140625	-570.6192626953125	564.5491943359375	-290.2490844726562	-462.5831298828126	472.768310546875	-354.3543090820312	-450.6060485839844	468.5076599121094	-242.158462524414	-581.6828002929688	381.8656311035156	-363.5874633789062	-614.9727172851562	447.3628234863281	-354.8815002441406	-677.87548828125	410.4453124999999	-341.4898376464843	-646.34521484375	346.5583801269531	-356.5326538085937	-602.3489379882812	344.3951110839843	-244.2975311279297	-824.389892578125	258.4457397460937	-314.9761657714843	-802.15283203125	252.8373718261718	-229.7243347167968	-863.516357421875	305.8258666992187	-264.6701354980468	-847.1038208007812	192.9830474853515	-315.9117126464843	-835.408447265625	126.9488983154296	-322.2166442871093	-791.508544921875	99.33637237548824	-269.6329040527343	-785.0595703125	58.03130340576167	-289.4014892578124	-807.9853515625	128.9947967529296	-229.8636474609374	-825.492919921875	182.5303649902343	-223.2446746826171	-778.7848510742188	192.7286682128906	-279.4874267578124	-553.8442993164064	969.3156127929688	-27.29497718811032	-437.5518493652344	681.952392578125	-60.45677947998044	-521.7350463867188	670.752685546875	-38.45737838745114	-511.0700378417969	575.051513671875	-63.13281631469724	-444.5954284667969	583.5094604492188	-85.1800842285156	-423.4052734375001	560.5653076171875	-163.90185546875	-463.0043945312501	651.3989868164062	-201.8404083251953	-602.65966796875	621.0642700195312	-114.6066207885742	-461.4163513183594	500.9430847167969	-108.7889862060547	-467.2532348632813	500.9852905273437	-203.1185302734375	-457.3993530273438	371.1193237304688	-96.2451477050781	-528.4508056640625	380.6716918945312	-78.37009429931638	-537.371337890625	305.3475646972656	-80.2630920410156	-469.2008361816406	295.4405822753906	-98.65411376953122	-470.8641967773438	338.3055419921874	-198.6027221679687	-515.8392333984375	86.11159515380857	-125.1865463256836	-509.4607543945312	98.12261199951169	-211.7425689697265	-577.4572143554688	59.07909393310543	-160.7899169921875	-448.1654968261719	51.14057159423825	-128.6113891601562	-389.2392272949219	34.89285659790037	-121.4646072387695	-363.6496276855469	54.76128005981443	-197.8038482666015	-311.9017944335938	51.99172210693357	-201.990982055664	-374.4823608398438	26.02782440185545	-235.5962829589843	-449.9029235839844	51.69600296020505	-222.15625	-440.1681518554688	105.7593078613281	-176.4835052490234	-567.0433959960939	1556.468505859375	-280.5678405761718	-552.5421752929689	1569.725463867188	-122.0033187866211	-506.6500549316407	1574.0771484375	-204.5911254882812	
271	1.08	-563.9964599609376	1667.208740234375	-202.2536468505859	-505.4099121093751	1569.542602539062	-287.5099182128906	-498.6611633300782	1580.316650390625	-122.1645889282226	-596.5114746093751	1560.915405273438	-122.3761825561523	-620.0494995117189	1545.329345703125	-273.6630249023437	-554.8475952148439	1396.939575195312	-360.7260437011718	-554.5518188476564	1365.969604492188	-44.63905334472653	-514.6495361328126	1335.870361328125	-206.1906127929687	-468.0360107421876	1118.439331054688	-213.6898651123047	-437.1386413574219	988.2999877929688	-218.686538696289	-623.9786987304689	1423.82275390625	-199.0243682861328	-701.8863525390626	1221.320678710938	-217.5937194824218	-694.3555297851564	1124.25341796875	-212.5680389404297	-522.6671142578126	1334.526000976562	-350.3639526367187	-630.1513671875001	1373.555541992188	-369.2512817382812	-537.2607421875001	1187.195556640625	-402.7964172363281	-648.6749877929689	1202.096313476562	-408.2297058105468	-577.6802368164064	1076.452026367188	-462.5955810546874	-628.8721313476564	1058.5546875	-379.4511413574218	-586.6465454101564	958.7593994140625	-402.8294372558593	-590.5278930664064	976.703369140625	-484.1748352050781	-554.9227905273438	829.7457275390625	-444.3309020996093	-590.0852661132812	842.85205078125	-502.9540710449218	-565.9580078125	782.4119873046875	-501.9642639160156	-554.2376098632812	779.5357666015625	-445.6054687499999	-511.9942932128907	1309.211303710938	-66.34670257568357	-635.4912109375001	1336.524047851562	-45.42045593261715	-527.1527099609376	1162.359619140625	-11.52045345306393	-632.4183349609376	1164.828125	2.632904529571572	-555.2841796875001	1044.125122070312	66.59999847412112	-602.9613037109376	1024.259033203125	-21.34067153930661	-548.7340698242189	953.8191528320312	5.083222389221225	-578.2020874023439	973.3817749023438	83.81093597412112	-518.2262573242188	806.6651611328125	51.7637634277344	-572.1592407226562	805.5028686523438	97.71189880371097	-540.29638671875	749.0674438476562	105.5883255004883	-507.4670715332032	751.9854736328125	63.91525650024417	-494.7438964843751	974.0224609375	-330.9761962890624	-489.7656555175782	986.9196166992188	-97.76733398437497	-583.8880615234376	1013.633544921875	-38.53731918334957	-585.8894653320314	1031.262939453125	-40.58405685424801	-695.1476440429689	1019.519592285156	-150.3959045410156	-699.5847778320314	1013.69580078125	-203.2772979736328	-694.2606201171876	1013.932006835938	-253.4640960693359	-583.3297119140626	1025.528442382812	-377.1762390136718	-571.9308471679689	973.0873413085938	-382.7661132812499	-586.8863525390626	929.3077392578125	-396.5924377441406	-470.4815673828126	641.6347045898438	-388.3527526855468	-536.4743041992188	623.413818359375	-373.7395629882812	-508.1519470214844	530.9121704101562	-360.0521545410156	-439.4475402832032	553.6190185546875	-369.7676086425781	-395.0977172851563	541.4542846679688	-310.0928955078125	-434.2466125488282	610.3043212890625	-236.4668731689453	-563.257080078125	565.721923828125	-290.9472045898437	-453.2830505371094	474.9163208007812	-354.0871887207031	-441.4723815917969	470.9747924804688	-242.0043640136718	-571.9884033203125	383.6301879882812	-363.1199035644531	-605.8505859375	448.8858032226562	-354.3021850585937	-668.44677734375	411.5679016113281	-340.8119201660156	-636.4555053710938	347.8270263671874	-356.0097961425781	-592.2545166015625	345.8332519531249	-244.2995910644531	-813.4044189453125	258.1934814453124	-314.5617370605468	-790.9216918945312	252.3849945068359	-229.3428192138671	-853.6653442382812	304.2529602050781	-263.9345703124999	-834.2505493164062	192.1052246093749	-316.4212341308593	-821.57177734375	126.5030212402343	-322.8245239257812	-777.182373046875	99.04483795166011	-270.2026367187499	-769.7971801757812	58.32923507690425	-290.6780700683593	-794.2181396484375	128.4342803955078	-230.6491241455078	-814.3905639648438	181.9798278808593	-222.6417236328124	-766.7457885742188	193.1195526123046	-279.6034851074218	-549.4086914062501	969.944091796875	-27.11036300659176	-434.3043823242188	681.8377075195312	-60.13924407958982	-519.2166137695312	671.0978393554688	-38.39181518554685	-509.4139099121094	575.3434448242188	-62.98281097412107	-443.4724121093751	582.6212158203125	-85.00252532958982	-421.5751342773438	560.2417602539062	-163.1730194091797	-460.1136169433594	651.1008911132812	-201.7406768798828	-600.2281494140625	622.0361328125	-114.9506759643554	-460.1595764160157	500.8691101074219	-108.5823898315429	-465.6605529785157	500.7722167968749	-202.457290649414	-456.5043334960938	371.0594482421875	-96.22209167480466	-527.6626586914062	380.8019104003906	-78.3681945800781	-536.70068359375	305.5494995117187	-80.21970367431638	-468.2572937011719	295.4522399902343	-98.68226623535153	-468.9488830566406	338.8222961425781	-199.1314697265625	-515.7498168945312	86.18712615966794	-125.0955200195312	-509.3820495605469	98.20306396484372	-211.7707214355468	-577.4730224609375	59.20753860473629	-160.9058380126953	-448.1299743652344	51.18651199340817	-128.6186370849609	-389.1305541992188	35.03493499755857	-121.2779846191406	-363.8898010253906	54.69451904296873	-197.9791259765625	-311.9441833496094	51.72157669067381	-202.1472930908203	-374.4326477050781	25.96843528747556	-235.626708984375	-449.8326110839844	51.67425155639646	-222.179946899414	-442.8246154785156	103.9104690551758	-177.5199584960937	-562.7296752929689	1557.43603515625	-280.5864562988281	-547.5863037109376	1570.615966796875	-122.2703857421875	-502.0355224609376	1574.929565429688	-204.8372497558593	
272	1.084	-559.3801269531251	1668.1474609375	-202.3738708496093	-501.1047668457032	1570.319213867188	-287.6064147949218	-494.3626403808595	1581.335571289062	-122.135009765625	-592.3285522460939	1562.1533203125	-122.1695327758789	-615.7441406250001	1546.364868164062	-273.6509094238281	-551.0152587890626	1397.83935546875	-360.8499145507812	-550.3406982421876	1367.013916015625	-44.668830871582	-510.3612365722657	1337.136840820312	-206.2816467285156	-463.8417968750001	1119.434326171875	-213.5843353271484	-432.7499084472657	989.3201904296875	-218.3901214599609	-619.8512573242189	1424.788330078125	-199.0391845703125	-697.6022949218751	1222.065307617188	-217.0650482177734	-690.0285644531251	1125.124389648438	-212.0924224853515	-518.6657104492189	1335.3759765625	-350.5824279785156	-626.3094482421876	1374.344848632812	-368.9103088378906	-534.1065673828126	1188.10546875	-403.2568969726562	-645.2324218750001	1203.254760742188	-407.7993469238281	-575.0438842773439	1077.338134765625	-462.7736206054687	-626.0391235351564	1059.638793945312	-379.3255004882812	-583.6968383789064	959.9029541015625	-402.8428039550781	-588.1308593750001	977.685546875	-484.2023620605468	-552.962646484375	830.5236206054688	-444.3218994140624	-588.111083984375	843.6970825195312	-502.9758300781249	-564.2554321289062	783.1597900390625	-502.0383911132812	-552.368896484375	780.4315795898438	-445.5726013183593	-507.6941223144532	1310.368774414062	-66.2604064941406	-631.1017456054689	1337.014038085938	-44.82255554199215	-521.8413085937501	1163.59326171875	-11.48995399475094	-626.0621948242189	1165.000122070312	3.975808143615761	-548.2905883789064	1045.065063476562	66.43928527832034	-595.8420410156251	1025.0869140625	-20.81533622741696	-541.7401733398439	954.7924194335938	5.024374485015902	-570.4984741210939	974.1359252929688	83.79646301269534	-509.2874145507813	808.005126953125	51.12678146362308	-562.7506713867188	806.2514038085938	97.4016036987305	-530.4425659179688	750.2781982421875	105.1816711425782	-497.4719848632813	753.7064819335938	63.088737487793	-490.2054443359376	975.2339477539062	-330.7142944335937	-485.3572692871094	987.7692260742188	-97.73551940917966	-581.6138916015626	1013.903869628906	-38.59964370727536	-581.4478759765626	1031.980224609375	-40.3387413024902	-690.9601440429689	1020.786376953125	-150.5701599121093	-696.5548095703126	1015.867553710938	-204.5180358886718	-695.1959228515626	1016.311157226562	-254.9078979492187	-578.6868286132814	1026.8271484375	-377.2417907714843	-568.3685302734376	974.3018188476562	-382.2089843749999	-582.2781982421876	930.7515258789062	-396.4921264648437	-462.6463317871094	643.79345703125	-388.358154296875	-528.6970825195312	624.933349609375	-373.9464721679687	-498.3995361328126	532.3987426757812	-360.6987915039062	-430.7040100097657	556.1708984375	-369.5781555175781	-386.5265808105469	544.4668579101562	-309.6797180175781	-427.9169311523438	612.6188354492188	-236.046142578125	-554.1412353515625	566.4235229492188	-291.4332885742187	-444.2843322753907	477.2932739257812	-354.1468505859375	-432.4263610839844	473.402587890625	-241.9163360595703	-562.5740966796875	385.6485290527343	-362.8141784667968	-596.722900390625	450.3584289550781	-353.6914062499999	-659.0097045898438	412.4472961425781	-340.2702026367187	-626.4800415039062	349.0139770507812	-355.5239257812499	-582.59375	347.6392822265624	-244.4396820068359	-802.2274780273438	257.6971130371093	-314.1701660156249	-779.7591552734375	251.768081665039	-228.9362335205078	-843.7404174804688	302.4779968261718	-263.2551574707031	-822.5664672851562	190.9662170410156	-316.0693969726562	-807.6791381835938	125.8911361694336	-323.6361389160156	-762.7028198242188	98.90885925292964	-270.9966430664062	-754.4953002929688	59.28322219848628	-292.4516296386718	-780.4943237304688	127.6217422485351	-231.1904602050781	-800.701171875	180.6371765136718	-223.3688507080078	-754.38134765625	193.1809082031249	-279.5526123046874	-545.1140136718751	970.5648193359375	-26.96424484252926	-431.2107543945313	681.6841430664062	-59.83919525146482	-515.6536865234375	672.089599609375	-38.28971862792966	-507.6362609863282	575.6929931640625	-63.01432800292966	-440.8912353515626	582.9517211914062	-84.77105712890622	-419.5730285644532	559.8603515625	-162.6296997070312	-457.0886840820313	651.0093994140625	-201.5301666259765	-597.8221435546875	623.1000366210938	-115.3492126464843	-459.1151123046876	500.79052734375	-108.3416290283203	-463.3947143554688	500.959716796875	-202.2606048583984	-455.5866394042969	371.07666015625	-96.16623687744138	-526.808349609375	381.0368652343749	-78.28136444091794	-535.7388305664062	305.9368896484374	-80.35614013671872	-467.9854431152344	295.4573669433593	-98.50899505615232	-468.0671081542969	338.9213256835937	-199.2704620361328	-515.6824951171875	86.2758865356445	-125.1411895751953	-509.33203125	98.33155822753903	-211.791259765625	-577.3734741210938	59.23416900634762	-160.9538421630859	-448.0736083984375	51.15843582153317	-128.6139831542968	-389.06982421875	35.00292205810545	-121.2232437133789	-363.8664245605469	54.59908294677732	-197.9866333007812	-311.9133911132812	51.57282257080076	-202.1446990966797	-374.4087524414062	25.96153068542478	-235.564712524414	-449.753662109375	51.71871948242185	-222.1423645019531	-442.6360778808594	103.9507598876953	-177.4817199707031	-558.4244384765626	1558.342041015625	-280.6286621093749	-543.3455810546876	1571.744384765625	-122.1522750854492	-497.7337036132814	1575.827392578125	-204.8707122802734	
273	1.088	-554.7477416992189	1669.147705078125	-202.4603729248047	-496.7785034179689	1571.129028320312	-287.7522888183593	-489.8442687988282	1582.226684570312	-122.3387451171875	-587.7813110351564	1563.208862304688	-122.1910934448242	-611.4467163085939	1547.39208984375	-273.6095886230468	-547.0818481445314	1398.583618164062	-360.8252868652343	-546.0949707031251	1368.092163085938	-44.59341812133786	-506.1983947753907	1337.831787109375	-206.2482604980468	-459.3151855468751	1120.5185546875	-213.7374420166015	-428.1518249511719	990.3890380859375	-218.1393585205078	-615.7183837890626	1425.6728515625	-198.9636840820312	-693.3507690429689	1222.988037109375	-216.6170349121093	-685.6019287109376	1126.037475585938	-211.5361633300781	-514.5191650390626	1336.265991210938	-350.7709045410156	-622.3447875976564	1375.129028320312	-368.8271789550781	-530.9066772460939	1188.815307617188	-403.5774536132812	-641.8881835937501	1204.378662109375	-407.3039855957031	-572.2623901367189	1078.252563476562	-462.8819885253906	-623.1746215820314	1060.611938476562	-379.3663330078124	-581.6013183593751	960.9983520507812	-402.9909667968749	-585.6253051757814	978.69873046875	-484.2964172363281	-550.9064331054688	831.4351196289062	-444.2625122070312	-586.3224487304688	844.6132202148438	-502.9844970703124	-562.4403686523438	783.990234375	-502.0450439453124	-550.5543823242188	781.2901000976562	-445.4304809570312	-503.3249206542969	1311.564208984375	-66.15558624267575	-626.5926513671876	1338.2177734375	-44.64274978637692	-516.3902587890626	1164.893676757812	-11.63002490997311	-621.4115600585939	1165.846557617188	3.802390813827553	-541.4556274414064	1046.134765625	66.32769012451175	-589.6740112304689	1025.929077148438	-20.6872634887695	-534.7055664062501	955.9473266601562	4.674834251403841	-562.7938842773439	974.906982421875	83.7131271362305	-500.2199096679688	809.4274291992188	50.40483474731448	-553.8663330078125	807.0911865234375	96.89502716064456	-520.6613159179688	751.498046875	104.5349044799805	-487.4184570312501	755.5407104492188	62.39656066894534	-485.7903442382813	976.5154418945312	-330.4244384765624	-481.1328125000001	988.2449340820312	-97.20336151123044	-578.8603515625001	1014.39404296875	-38.90629959106442	-576.9779663085939	1032.677368164062	-40.06116867065426	-686.4747924804689	1021.847961425781	-150.4361267089843	-693.0171508789064	1017.305847167969	-204.8962249755859	-687.9412841796876	1016.588195800781	-253.027099609375	-574.3599243164064	1028.181030273438	-377.1251831054687	-564.2159423828126	975.699462890625	-381.8158264160156	-577.8062133789064	932.1298217773438	-396.2646484374999	-454.8265380859376	646.0017700195312	-388.1495971679688	-520.7771606445312	626.44775390625	-374.2116394042968	-488.7640686035157	534.3233642578125	-360.5070190429687	-422.0511169433594	558.8032836914062	-369.3514709472656	-378.0561828613282	547.2465209960938	-309.2761840820312	-420.8130798339844	615.1305541992188	-235.82177734375	-546.990966796875	567.7134399414062	-292.2236022949218	-435.2194519042969	479.6437683105469	-353.9257507324219	-423.2919921875001	475.9052734375	-241.645751953125	-552.930908203125	387.2769470214843	-362.4292907714843	-587.7719116210938	451.7902832031249	-353.1863708496093	-649.7073364257812	413.2708435058593	-339.6214904785156	-616.5165405273438	350.0734252929687	-355.1953430175781	-572.6378173828125	349.1443176269531	-244.3944091796875	-791.0670166015625	256.8493957519531	-313.6801757812499	-768.6331176757812	250.7829284667968	-228.5718231201171	-833.7872314453125	300.3558959960937	-262.5404968261718	-809.9935913085938	189.7994995117187	-316.0667114257812	-793.5809936523438	124.9307098388671	-324.1333312988281	-748.2210693359375	98.79674530029293	-271.9918518066406	-739.1010131835938	59.50251770019527	-293.4595947265624	-766.4246215820312	126.7287902832031	-232.0550231933593	-788.0989990234375	179.2505798339843	-223.5573120117187	-742.1192626953125	193.0616760253906	-279.5636291503906	-540.9592895507814	971.1725463867188	-26.843391418457	-428.2990722656251	681.4832763671875	-59.55954742431638	-513.1233520507812	672.318359375	-37.84488677978513	-505.9448547363282	575.923828125	-62.92271041870114	-438.6048583984376	582.8197631835938	-84.43811035156247	-417.7508544921876	559.5070190429688	-161.9917297363281	-453.6627502441407	651.2297973632812	-201.267822265625	-595.3900146484375	624.1429443359375	-115.7389755249023	-458.1914672851563	500.862060546875	-108.1632995605468	-461.5910339355469	500.7508544921875	-202.0125122070312	-454.8142700195312	371.1363830566406	-96.162239074707	-526.0364379882812	381.2335815429687	-78.26669311523435	-534.7528686523438	306.3675231933593	-80.13792419433591	-467.4267272949219	295.7966003417968	-98.49737548828122	-467.1912841796875	339.0295715332031	-199.2346954345703	-515.5665893554688	86.25315856933591	-125.2372665405273	-509.17724609375	98.42441558837888	-211.7796020507812	-577.3612670898438	59.33689117431637	-160.9989776611328	-448.0921936035156	51.20985031127927	-128.6558990478515	-389.0563354492188	34.94663238525388	-121.1798324584961	-363.7809448242188	54.52788162231443	-198.0455932617187	-311.8586730957031	51.47556304931638	-202.0579833984375	-374.38525390625	26.00480651855467	-235.5968627929687	-449.71142578125	51.7110786437988	-222.1430358886718	-442.4892883300781	103.9314346313476	-177.5487976074218	-554.1126098632814	1559.260498046875	-280.6809387207031	-538.8128051757814	1572.7177734375	-122.2649154663086	-493.3114013671876	1576.677856445312	-205.0455169677734	
